<svg width="409" height="133" viewBox="0 0 409 133" fill="none" xmlns="http://www.w3.org/2000/svg">
<path d="M287.875 130H243.985V117.84H260.515L251.585 94.09H198.765L189.265 117.84H207.125V130H163.615V117.84H175.205L215.675 18.66H195.915V6.49999H231.065L275.335 117.84H287.875V130ZM247.595 83.26L226.315 26.64H225.175L202.945 83.26H247.595ZM388.278 42.03L375.738 43.36L371.938 18.66H324.058V66.73H380.868V78.89H324.058V117.84H345.908V130H294.608V117.84H310.188V18.66H294.608V6.49999H384.288L388.278 42.03Z" fill="white"/>
<g clip-path="url(#clip0)">
<path d="M102.917 91.5416C109.499 90.2051 115.349 86.4706 119.333 81.063C123.316 75.6554 125.148 68.9605 124.473 62.2781C123.798 55.5957 120.665 49.4025 115.68 44.9008C110.696 40.399 104.216 37.9099 97.5 37.9166H90.675C88.8804 30.9688 85.3885 24.5753 80.5128 19.3103C75.637 14.0453 69.5301 10.0735 62.7403 7.75157C55.9504 5.42962 48.6902 4.83019 41.6115 6.0071C34.5328 7.18401 27.8572 10.1004 22.184 14.4945C16.5107 18.8885 12.0175 24.6227 9.10773 31.1822C6.19794 37.7416 4.96266 44.921 5.51279 52.0758C6.06293 59.2305 8.38125 66.1367 12.2596 72.1742C16.138 78.2117 21.455 83.1915 27.7333 86.6666" stroke="white" stroke-width="12" stroke-linecap="round" stroke-linejoin="round"/>
<path d="M70.4167 59.5833L48.75 92.0833H81.25L59.5833 124.583" stroke="white" stroke-width="12" stroke-linecap="round" stroke-linejoin="round"/>
</g>
<defs>
<clipPath id="clip0">
<rect width="130" height="130" fill="white"/>
</clipPath>
</defs>
</svg>
