<svg width="250" height="250" viewBox="0 0 250 250" fill="none" xmlns="http://www.w3.org/2000/svg">
<rect width="250" height="250" fill="#184ACB"/>
<path d="M134.45 190H90.56V177.84H107.09L98.16 154.09H45.34L35.84 177.84H53.7V190H10.19V177.84H21.78L62.25 78.66H42.49V66.5H77.64L121.91 177.84H134.45V190ZM94.17 143.26L72.89 86.64H71.75L49.52 143.26H94.17ZM234.853 102.03L222.313 103.36L218.513 78.66H170.633V126.73H227.443V138.89H170.633V177.84H192.483V190H141.183V177.84H156.763V78.66H141.183V66.5H230.863L234.853 102.03Z" fill="#243BB1"/>
<g clip-path="url(#clip0)">
<path d="M163.917 152.542C170.499 151.205 176.349 147.471 180.333 142.063C184.316 136.655 186.148 129.961 185.473 123.278C184.798 116.596 181.665 110.402 176.68 105.901C171.696 101.399 165.216 98.9099 158.5 98.9166H151.675C149.88 91.9688 146.389 85.5753 141.513 80.3103C136.637 75.0453 130.53 71.0735 123.74 68.7516C116.95 66.4296 109.69 65.8302 102.612 67.0071C95.5328 68.184 88.8572 71.1004 83.184 75.4945C77.5108 79.8885 73.0175 85.6227 70.1077 92.1822C67.198 98.7416 65.9627 105.921 66.5128 113.076C67.0629 120.231 69.3813 127.137 73.2596 133.174C77.138 139.212 82.455 144.192 88.7333 147.667" stroke="#A3B4DF" stroke-width="12" stroke-linecap="round" stroke-linejoin="round"/>
<path d="M131.417 120.583L109.75 153.083H142.25L120.583 185.583" stroke="#A3B4DF" stroke-width="12" stroke-linecap="round" stroke-linejoin="round"/>
</g>
<defs>
<clipPath id="clip0">
<rect width="130" height="130" fill="white" transform="translate(61 61)"/>
</clipPath>
</defs>
</svg>
