<svg width="156" height="145" viewBox="0 0 156 145" fill="none" xmlns="http://www.w3.org/2000/svg">
<path d="M123.5 102.104C131.398 100.613 138.419 96.4479 143.199 90.4164C147.98 84.3848 150.178 76.9175 149.368 69.4641C148.558 62.0106 144.797 55.1028 138.816 50.0816C132.835 45.0604 125.06 42.2841 117 42.2916H108.81C106.656 34.5421 102.466 27.411 96.6153 21.5384C90.7644 15.6659 83.4361 11.2358 75.2883 8.64598C67.1405 6.05611 58.4283 5.38752 49.9339 6.70023C41.4394 8.01294 33.4286 11.2659 26.6208 16.1669C19.8129 21.068 14.421 27.4638 10.9293 34.7801C7.43755 42.0964 5.95521 50.1042 6.61537 58.0845C7.27553 66.0648 10.0575 73.7678 14.7116 80.502C19.3656 87.2361 25.746 92.7906 33.28 96.6666" stroke="#357DC8" stroke-width="12" stroke-linecap="round" stroke-linejoin="round"/>
<path d="M84.5 66.4583L58.5 102.708H97.5L71.5 138.958" stroke="#357DC8" stroke-width="12" stroke-linecap="round" stroke-linejoin="round"/>
</svg>
