<svg width="130" height="130" viewBox="0 0 130 130" fill="none" xmlns="http://www.w3.org/2000/svg">
<g clip-path="url(#clip0)">
<path d="M102.917 91.5416C109.499 90.2051 115.349 86.4705 119.333 81.0629C123.316 75.6553 125.148 68.9605 124.473 62.2781C123.798 55.5957 120.665 49.4025 115.68 44.9007C110.696 40.399 104.216 37.9099 97.5 37.9166H90.675C88.8804 30.9688 85.3885 24.5753 80.5128 19.3103C75.637 14.0453 69.5301 10.0735 62.7403 7.75156C55.9504 5.42961 48.6902 4.83018 41.6115 6.0071C34.5328 7.18401 27.8572 10.1004 22.184 14.4945C16.5107 18.8885 12.0175 24.6227 9.10774 31.1822C6.19795 37.7416 4.96267 44.921 5.5128 52.0758C6.06293 59.2305 8.38126 66.1367 12.2596 72.1742C16.138 78.2117 21.455 83.1915 27.7333 86.6666" stroke="#357DC8" stroke-width="12" stroke-linecap="round" stroke-linejoin="round"/>
<path d="M70.4167 59.5833L48.75 92.0833H81.25L59.5833 124.583" stroke="#357DC8" stroke-width="12" stroke-linecap="round" stroke-linejoin="round"/>
</g>
<defs>
<clipPath id="clip0">
<rect width="130" height="130" fill="white"/>
</clipPath>
</defs>
</svg>
